<?xml version="1.0" encoding="UTF-8" standalone="no"?>
<!-- Created with Inkscape (http://www.inkscape.org/) -->

<svg
   width="210mm"
   height="210mm"
   viewBox="0 0 210 210"
   version="1.1"
   id="svg1"
   xml:space="preserve"
   inkscape:version="1.3 (0e150ed6c4, 2023-07-21)"
   sodipodi:docname="icon.svg"
   inkscape:export-filename="icon-128.png"
   inkscape:export-xdpi="15.481904"
   inkscape:export-ydpi="15.481904"
   xmlns:inkscape="http://www.inkscape.org/namespaces/inkscape"
   xmlns:sodipodi="http://sodipodi.sourceforge.net/DTD/sodipodi-0.dtd"
   xmlns="http://www.w3.org/2000/svg"
   xmlns:svg="http://www.w3.org/2000/svg"><sodipodi:namedview
     id="namedview1"
     pagecolor="#ffffff"
     bordercolor="#999999"
     borderopacity="1"
     inkscape:showpageshadow="2"
     inkscape:pageopacity="0"
     inkscape:pagecheckerboard="0"
     inkscape:deskcolor="#d1d1d1"
     inkscape:document-units="mm"
     inkscape:zoom="0.53362093"
     inkscape:cx="382.29385"
     inkscape:cy="396.34877"
     inkscape:window-width="1440"
     inkscape:window-height="837"
     inkscape:window-x="-8"
     inkscape:window-y="-8"
     inkscape:window-maximized="1"
     inkscape:current-layer="layer1" /><defs
     id="defs1" /><g
     inkscape:label="Capa 1"
     inkscape:groupmode="layer"
     id="layer1"><g
       style="opacity:1;fill:none;fill-rule:nonzero;stroke:none;stroke-width:0;stroke-linecap:butt;stroke-linejoin:miter;stroke-miterlimit:10;stroke-dasharray:none"
       transform="matrix(2.1868833,0,0,2.1868833,6.5903555,6.5902855)"
       id="g1">&#10;	<path
   d="M 69.186,38.498 C 67.78,37.703 66.435,36.847 64.846,35.93 66.435,34.952 67.903,34.096 69.309,33.301 75.85,29.755 79.457,22.542 78.356,15.206 76.766,3.164 62.889,-3.804 52.375,2.186 41.616,8.361 30.857,14.413 20.22,20.77 c -8.436,5.074 -9.659,11.798 -8.314,19.745 0.856,4.952 4.157,8.619 8.497,11.126 1.528,0.856 2.995,1.712 4.646,2.69 -1.834,1.1 -3.484,2.078 -5.257,2.995 -7.825,4.952 -10.515,15.099 -6.113,23.291 4.646,8.62 15.405,11.921 24.024,7.275 9.292,-5.257 18.584,-10.637 27.815,-16.016 2.201,-1.284 4.524,-2.445 6.48,-4.035 9.842,-8.192 8.375,-23.046 -2.812,-29.343 z M 36.359,58.549 V 31.835 l 23.108,13.327 z"
   style="opacity:1;fill:#947e7e;fill-opacity:1;fill-rule:nonzero;stroke:none;stroke-width:1;stroke-linecap:butt;stroke-linejoin:miter;stroke-miterlimit:10;stroke-dasharray:none"
   stroke-linecap="round"
   id="path1" />&#10;</g><path
       id="path2"
       style="fill:none;stroke:#ff0202;stroke-width:16;stroke-linejoin:round;stroke-dasharray:none;stroke-opacity:1;fill-opacity:1"
       d="M 34.707869,35.203696 174.79633,174.7963 M 202.14178,105 A 97.141777,97.141777 0 0 1 105,202.14178 97.141777,97.141777 0 0 1 7.858223,105 97.141777,97.141777 0 0 1 105,7.858223 97.141777,97.141777 0 0 1 202.14178,105 Z" /></g></svg>
